<svg xmlns="http://www.w3.org/2000/svg" width="2500" height="1556" viewBox="0 0 2500 1556"><path fill="#EA001B" d="M1105.1 1556.2c413.4 0 748.4-335 748.4-748.4s-335-748.4-748.4-748.4-748.4 335-748.4 748.4 335 748.4 748.4 748.4z"/><path fill="#F69F00" d="M1419.9 59.5c413.4 0 748.4 335 748.4 748.4s-335 748.4-748.4 748.4-748.4-335-748.4-748.4 335-748.4 748.4-748.4z"/><path fill="#FF5F00" d="M1262.5 778.1c0-261.2-111.4-498.4-290.5-654.4-179.1 156-290.5 393.2-290.5 654.4s111.4 498.4 290.5 654.4c179.1-156 290.5-393.2 290.5-654.4z"/></svg>