<svg xmlns="http://www.w3.org/2000/svg" width="1000" height="323" viewBox="0 0 1000 323"><path fill="#1A1F71" d="M399 2h-398c-1.1 0-2 .9-2 2v317c0 1.1.9 2 2 2h398v-321z"/><path fill="#E8A200" d="M1000 2v319h-40c-1.1 0-2-.9-2-2v-317c0-1.1.9-2 2-2h40z"/><path fill="#1A1F71" d="M601 2h398c1.1 0 2 .9 2 2v317c0 1.1-.9 2-2 2h-398v-321z"/><path fill="#FFF" d="M510.5 130.2c-15.3 11-25 24.3-30.3 40.5H612c3.3-11.3 4.5-22.3 2-33.3-3.6-16.3-15.5-29-30.8-35.8-16.8-7.5-38-9.4-57.9-7.5-1.3.1-2.5.2-3.8.4-.7.1-1.3.2-2 .3-15.6 2.4-28.7 10.3-39 20.3 8.3-25.5 28.7-44.5 55.4-49.8 19.3-3.8 39.5-2 56.5 4.6 20.3 7.8 35.6 22.3 42.6 42.9 2.5 7.4 3.7 15 3.5 22.6-1.5 43.1-23.9 76.8-63.5 90-13.9 4.6-28.4 6.3-43.1 5-21.7-1.9-42.2-10.2-58.4-24.3-11-9.6-18.7-22.1-22.6-35.8-3.4-11.8-3.2-23.8.6-35.5 6.3-19.4 19.3-35.2 37.1-45.7 1.2-.7 2.4-1.4 3.6-2 .9-.5 1.8-1 2.7-1.4 10.8-5.3 22.6-8.3 34.8-8.7 1.8-.1 3.5-.1 5.3-.1h5.2c1.7 0 3.3.1 4.9.2 12.3.9 24.3 4.1 35.1 9.8-12.7-29.3-40.2-49-71.8-50.5-22.9-1.1-45.4 5.3-63.1 18-12.4 9-22.4 21.1-29.2 34.8-1.5 3-2.9 6.2-4.1 9.3-6.5 16.5-9.3 34-8.2 51.5 1.1 16.5 6.2 32.5 14.7 47.1 11.2 19.3 27.9 35.2 48.1 46.1 21.7 11.7 46.4 16.8 71.5 14.8 21.6-1.8 42.2-8.6 59.8-19.5 23.3-14.4 40.8-35.9 49.2-61.2 4.7-14.1 6.8-28.8 6.1-43.6-.9-20.1-6.8-39.5-16.9-56.9-8.4-14.4-20-26.8-34.3-36.4-1.2-.8-2.3-1.6-3.5-2.4z"/></svg>